<svg width="207" height="193" viewBox="0 0 207 193" fill="none" xmlns="http://www.w3.org/2000/svg">
<path d="M163.428 102.863L163.429 102.864L145.715 116.257L164.695 178.416L169.048 192.672L156.979 183.925L105.36 146.513L51.7783 183.974L39.4844 192.568L44.1621 178.316L44.7051 176.659L58.3789 167.068L58.3418 167.183L102.548 136.278L105.466 134.238L108.348 136.327L150.777 167.079L135.131 115.836L134.11 112.495L136.897 110.388L157.397 94.8877L157.421 94.8701L157.445 94.8525L159.602 93.2617H176.444L163.428 102.863ZM110.113 12.6699L131.418 71.376H206.113L193.881 80.3994L192.557 81.376H124.408L123.213 78.082L105.311 28.7529L86.5889 78.1484L85.3652 81.376H31.8262L73.2725 110.274L76.3232 112.401L75.1641 115.936L64.5703 148.207L50.8965 157.798L64.502 116.35L13.0537 80.4775L0 71.376H78.4609L100.737 12.6035L105.515 0L110.113 12.6699Z" fill="white"/>
</svg>
